<?xml version="1.0" encoding="utf-8"?>
<!-- Generator: Adobe Illustrator 19.2.1, SVG Export Plug-In . SVG Version: 6.00 Build 0)  -->
<svg version="1.1" id="Capa_1" xmlns="http://www.w3.org/2000/svg" xmlns:xlink="http://www.w3.org/1999/xlink" x="0px" y="0px"
	 viewBox="0 0 220 215.7" style="enable-background:new 0 0 220 215.7;" xml:space="preserve">
<style type="text/css">
	.st0{fill:#C7CEDD;}
	.st1{fill:#BEC6DA;}
	.st2{fill:#B4BDD7;}
	.st3{fill:#ABB5D4;}
	.st4{fill:#A1ADD1;}
	.st5{fill:#98A5CE;}
	.st6{fill:#8E9DCB;}
	.st7{fill:#8595C7;}
	.st8{fill:#7B8DC4;}
	.st9{fill:#7185C0;}
	.st10{fill:#677EBD;}
	.st11{fill:#5D76B9;}
</style>
<g>
	<path class="st0" d="M110.6,0L110.6,0c6.3,0,11.3,5.1,11.3,11.3v51.6c0,6.3-5.1,11.3-11.3,11.3h0c-6.3,0-11.3-5.1-11.3-11.3V11.3
		C99.3,5.1,104.4,0,110.6,0z"/>
	<path class="st1" d="M50.6,17.8L50.6,17.8c5.2-3.4,12.3-1.9,15.7,3.3l28.1,43.3c3.4,5.2,1.9,12.3-3.3,15.7l0,0
		c-5.2,3.4-12.3,1.9-15.7-3.3L47.3,33.4C43.9,28.2,45.4,21.2,50.6,17.8z"/>
	<path class="st2" d="M10.8,63.7L10.8,63.7c2.6-5.7,9.4-8.1,15.1-5.5L72.6,80c5.7,2.6,8.1,9.4,5.5,15.1l0,0
		c-2.6,5.7-9.4,8.1-15.1,5.5L16.2,78.7C10.6,76.1,8.1,69.4,10.8,63.7z"/>
	<path class="st3" d="M1.7,126.4L1.7,126.4c-0.9-6.2,3.4-12,9.5-12.9l51.1-7.6c6.2-0.9,12,3.4,12.9,9.5v0c0.9,6.2-3.4,12-9.5,12.9
		l-51.1,7.6C8.4,136.8,2.6,132.6,1.7,126.4z"/>
	<path class="st4" d="M27.5,182.4L27.5,182.4c-4.1-4.7-3.6-11.9,1.1-16l38.9-33.9c4.7-4.1,11.9-3.6,16,1.1l0,0
		c4.1,4.7,3.6,11.9-1.1,16l-38.9,33.9C38.8,187.6,31.6,187.1,27.5,182.4z"/>
	<path class="st5" d="M78.9,215.6L78.9,215.6c-6-1.8-9.4-8.1-7.6-14.1l14.9-49.4c1.8-6,8.1-9.4,14.1-7.6h0c6,1.8,9.4,8.1,7.6,14.1
		L93,208C91.2,214,84.8,217.4,78.9,215.6z"/>
	<path class="st6" d="M142.4,215.6L142.4,215.6c-6,1.8-12.3-1.6-14.1-7.6l-14.9-49.4c-1.8-6,1.6-12.3,7.6-14.1h0
		c6-1.8,12.3,1.6,14.1,7.6l14.9,49.4C151.8,207.5,148.4,213.8,142.4,215.6z"/>
	<path class="st7" d="M193.8,182.4L193.8,182.4c-4.1,4.7-11.3,5.2-16,1.1l-38.9-33.9c-4.7-4.1-5.2-11.3-1.1-16l0,0
		c4.1-4.7,11.3-5.2,16-1.1l38.9,33.9C197.4,170.5,197.9,177.7,193.8,182.4z"/>
	<path class="st8" d="M219.6,126.4L219.6,126.4c-0.9,6.2-6.7,10.5-12.9,9.5l-51.1-7.6c-6.2-0.9-10.5-6.7-9.5-12.9v0
		c0.9-6.2,6.7-10.5,12.9-9.5l51.1,7.6C216.2,114.4,220.5,120.2,219.6,126.4z"/>
	<path class="st9" d="M210.5,63.7L210.5,63.7c2.6,5.7,0.2,12.4-5.5,15.1l-46.8,21.8c-5.7,2.6-12.4,0.2-15.1-5.5v0
		c-2.6-5.7-0.2-12.4,5.5-15.1l46.8-21.8C201.2,55.6,207.9,58,210.5,63.7z"/>
	<path class="st10" d="M170.7,17.8L170.7,17.8c5.2,3.4,6.7,10.4,3.3,15.7l-28.1,43.3c-3.4,5.2-10.4,6.7-15.7,3.3l0,0
		c-5.2-3.4-6.7-10.4-3.3-15.7L155,21.1C158.4,15.8,165.4,14.4,170.7,17.8z"/>
	<path class="st11" d="M110.6,0L110.6,0c6.3,0,11.3,5.1,11.3,11.3v51.6c0,6.3-5.1,11.3-11.3,11.3h0c-6.3,0-11.3-5.1-11.3-11.3V11.3
		C99.3,5.1,104.4,0,110.6,0z"/>
</g>
</svg>
