<?xml version="1.0" encoding="utf-8"?>
<!-- Generator: Adobe Illustrator 19.2.1, SVG Export Plug-In . SVG Version: 6.00 Build 0)  -->
<svg version="1.1" id="Capa_1" xmlns="http://www.w3.org/2000/svg" xmlns:xlink="http://www.w3.org/1999/xlink" x="0px" y="0px"
	 viewBox="0 0 240.1 240.1" style="enable-background:new 0 0 240.1 240.1;" xml:space="preserve">
<style type="text/css">
	.st0{fill:#F2FEFC;}
	.st1{fill:#2EE4C5;}
	.st2{fill:#0DBEB9;}
	.st3{fill:#76FEE4;}
	.st4{fill:#0FB7BB;}
	.st5{fill:#1BCDB7;}
	.st6{fill:#11ADB9;}
	.st7{fill:#BAFEF1;}
	.st8{fill:#3BECCA;}
	.st9{fill:#E0FEF8;}
	.st10{fill:#57F6D7;}
	.st11{fill:#26DABF;}
</style>
<g>
	<path class="st0" d="M0,122.9c0.8,1.5,1.4,3.1,2.4,4.5c2.2,3.1,5.5,4.3,9.2,4.4c6.9,0.2,13.9,0.1,20.8,0
		c6.7-0.1,11.4-4.4,12.1-10.9c0.7-6.4-4.9-12.4-11.9-12.5c-7.1-0.1-14.2-0.2-21.3,0c-4.6,0.2-8.4,2.3-10.3,6.8
		c-0.3,0.7-0.7,1.4-1,2.1C0,119.1,0,121,0,122.9z"/>
	<path class="st1" d="M240.1,117.2c-0.4-0.1-0.5-0.6-0.6-0.9c-1.9-5.3-5.8-7.8-11.2-7.9c-6.9-0.2-13.9-0.1-20.8,0
		c-6.5,0.1-11,4.2-11.8,10.2c-0.7,5.6,2.6,11.5,8.1,12.4c9.3,1.5,18.8,1.3,28.2,0.1c3.8-0.5,6.3-3.5,7.6-7.2c0.2-0.5,0-1.1,0.6-1.4
		C240.1,120.7,240.1,119,240.1,117.2z"/>
	<path class="st2" d="M117.2,0c-0.1,0.5-0.6,0.5-0.9,0.6c-5.3,1.9-7.8,5.8-7.9,11.3c-0.1,6.9-0.1,13.9,0,20.8
		c0.1,6.5,4.2,11,10.2,11.7c5.6,0.7,11.5-2.6,12.3-8.1c1.5-9.3,1.3-18.8,0-28.2c-0.5-3.7-3.4-6.2-7-7.5c-0.5-0.2-1.3,0-1.6-0.7
		C120.7,0,119,0,117.2,0z"/>
	<path class="st3" d="M122.4,240.1c2.6-1.1,5.2-2.1,6.9-4.5c1.7-2.3,2.4-4.9,2.4-7.7c0.1-6.7,0.1-13.4,0-20.2
		c-0.1-4.9-2.2-8.8-6.6-11c-4.2-2.1-8.4-1.6-12.2,1.2c-3.2,2.4-4.4,5.8-4.5,9.6c-0.1,6.8-0.1,13.6,0,20.4c0.1,5.5,2.5,9.6,7.9,11.5
		c0.3,0.1,0.6,0.4,0.9,0.6C119,240.1,120.7,240.1,122.4,240.1z"/>
	<path class="st4" d="M87.7,44.3c0.2-2-0.5-4-1.6-5.8c-3.3-5.8-6.6-11.7-10.1-17.5c-2.9-4.9-7.4-6.9-12.9-6
		c-4.1,0.7-7.6,4.3-8.6,8.9c-0.6,2.8-0.3,5.5,1.1,8c3.6,6.4,7.2,12.8,11,19c2.7,4.4,8.3,6.2,13.2,4.6C84.7,54,87.7,49.7,87.7,44.3z"
		/>
	<path class="st5" d="M185.7,26.7c0-5.4-3.2-9.9-8-11.4c-5.1-1.6-10.5,0.4-13.5,5.3c-3.7,6-7.2,12.1-10.5,18.3
		c-3.1,5.8-1.1,12.7,4.3,15.7c5.4,3.1,12.5,1.2,15.9-4.4c3.5-5.9,6.9-11.9,10.3-17.9C185.2,30.5,185.8,28.6,185.7,26.7z"/>
	<path class="st6" d="M26,54.3c-4.9,0-9.4,3.2-11,7.7c-1.6,4.7-0.2,10.3,3.9,13c6.7,4.4,13.6,8.5,20.9,12c5.1,2.5,11.7-0.1,14.4-4.9
		c2.9-5.1,1.5-12-3.5-15.2c-6.6-4.2-13.4-7.9-20.2-11.8C29.2,54.3,27.5,54.4,26,54.3z"/>
	<path class="st7" d="M65.7,225.1c6,0.2,9.1-3.5,11.7-8c2.9-5.1,5.9-10.1,8.7-15.2c4.2-7.7,0.4-17.4-9.9-17.9
		c-4.3-0.2-7.9,2.1-10.1,6c-3.4,5.9-6.9,11.7-10.2,17.6C51.5,215.7,56.8,225.6,65.7,225.1z"/>
	<path class="st8" d="M196.5,152.3c-5.8,0-10.3,3.1-11.8,7.8c-1.6,4.9,0.1,10.5,4.5,13.2c6.3,3.9,12.7,7.7,19.3,11.1
		c5.7,3,12.8,0.7,15.6-4.7c2.9-5.5,1-12.3-4.6-15.7c-6-3.6-12-6.9-18-10.4C199.6,152.7,197.7,152.2,196.5,152.3z"/>
	<path class="st9" d="M55.8,163.3c0.4-4.4-2.1-7.6-5.8-9.7c-3.7-2.1-7.8-1.9-11.6,0.3c-5.8,3.3-11.6,6.8-17.4,10.1
		c-6.4,3.6-7.4,10.8-4.8,16c2.9,5.6,10.6,7.5,16.3,4.3c5.7-3.3,11.3-6.6,17-9.9C54,171.7,55.8,168.7,55.8,163.3z"/>
	<path class="st10" d="M185.7,213.5c0.1-2.2-0.6-4.2-1.6-6c-3.3-5.8-6.5-11.5-9.9-17.2c-4.4-7.3-13.7-8.4-19-2.4
		c-3.2,3.6-3.8,9.2-1.2,13.8c3.3,5.9,6.7,11.8,10.2,17.6c2.9,4.9,8.3,7,13.5,5.4C182.6,223.3,185.8,219,185.7,213.5z"/>
	<path class="st11" d="M214.5,54.3c-2.4-0.1-4.3,0.4-6,1.4c-6.1,3.5-12.3,6.8-18.3,10.3c-5.7,3.3-7.7,10.2-4.7,15.8
		c2.9,5.5,10,7.7,15.8,4.5c6.3-3.4,12.5-7,18.6-10.7c4.4-2.7,6-6.9,5.2-11.9c-0.7-4.4-3.2-7.5-7.5-9
		C216.4,54.4,215.2,54.4,214.5,54.3z"/>
</g>
</svg>
