<?xml version="1.0" encoding="utf-8"?>
<!-- Generator: Adobe Illustrator 19.2.1, SVG Export Plug-In . SVG Version: 6.00 Build 0)  -->
<svg version="1.1" id="Capa_1" xmlns="http://www.w3.org/2000/svg" xmlns:xlink="http://www.w3.org/1999/xlink" x="0px" y="0px"
	 viewBox="0 0 504.1 478.1" style="enable-background:new 0 0 504.1 478.1;" xml:space="preserve">
<style type="text/css">
	.st0{fill:#F8E7F9;}
	.st1{fill:#C158E3;}
</style>
<g>
	<path class="st0" d="M57.4,334.2C19.4,272.1,4.9,228.2,6,186c0.8-33.4,15.5-64.8,40.2-87.2c25.4-23.1,63.6-47.3,111.2-59.9
		c81.2-21.5,258.7-64.8,316.5-18c57.2,46.7,21.4,205.1-8.6,310.5C435.3,436.2,397.3,475.6,307,482.6
		C217,489.9,108.7,417.5,57.4,334.2z"/>
</g>
<g>
	<g>
		<path class="st1" d="M328.3,454c-5.4-0.9-10.9-1.6-16.3-2.6c-21-3.9-40.7-11.8-59.7-21.2C221,414.8,192,396,165.9,372.9
			C113.6,326.6,72.3,272.6,49,206c-5.8-16.6-9.2-33.6-8.8-51.3c0.4-16.6,5.8-31.3,17.5-43.2c10.2-10.5,20.5-20.8,30.9-31
			c6.7-6.5,14.8-10.7,24-12.6c3.3,0,6.5,0,9.8,0c12.3,2.4,21.2,10.2,29.6,18.8c14.9,15.3,30.3,30.1,44.9,45.7
			c13.7,14.7,13.6,34.5,0.2,49.5c-9.2,10.3-19.3,19.8-29.1,29.5c-2.2,2.1-2.8,3.6-1.3,6.6c10,20.7,24.4,38.3,39.9,54.9
			c15.9,17.1,33.4,32.3,53.1,44.9c5.3,3.4,11,6.1,16.4,9.2c1.9,1.1,3,0.8,4.5-0.7c8.4-8.5,16.8-17,25.3-25.3c5-5,10.4-9.5,17.2-11.9
			c14.8-5.2,27.9-1.8,38.8,8.9c16.9,16.4,33.4,33,49.9,49.8c16.5,16.8,17.8,36.9,2.4,54.6c-11.3,13-23.8,25.2-36.4,37.1
			c-8.8,8.3-19.9,12.4-32,13.8c-0.9,0.1-1.7,0.5-2.5,0.7C338.3,454,333.3,454,328.3,454z M335.8,434.5c11.6,0.2,22.4-2.8,30.8-10.9
			c11.3-10.9,22.2-22.2,32.9-33.7c8-8.7,7.9-18.2-0.3-26.6c-17-17.4-34.2-34.5-51.5-51.4c-6.7-6.6-15.3-6.8-23-1.2
			c-1.9,1.4-3.7,3.1-5.3,4.8c-9.4,9.3-18.6,18.7-28,28c-6.3,6.2-12.8,7.3-20.6,3.4c-5.5-2.8-11-5.6-16.2-8.8
			c-23.8-14.2-44.6-32.2-63.4-52.5c-17.4-18.8-33.2-38.7-43.8-62.3c-4.6-10.3-3.5-15.8,4.5-23.6c9.2-8.9,18.4-17.8,27.4-27
			c10.5-10.8,10.5-19.5,0.2-30.4c-0.2-0.2-0.3-0.4-0.5-0.5c-15.5-15.5-30.9-31-46.4-46.3c-2.5-2.4-5.3-4.8-8.4-6.2
			c-8.6-4-15.7-0.5-21.8,5.5c-10.1,9.5-20,19.1-29.4,29.3c-4.1,4.4-7.6,9.8-10,15.3c-5.1,12.5-3.8,25.6-1.2,38.5
			c5.1,25.1,15,48.4,27.4,70.6c21.9,39.3,49.7,73.9,83.1,104.1s70.8,54,112.6,70.7C301.3,429.8,318.2,434,335.8,434.5z"/>
	</g>
	<g>
		<path class="st1" d="M265.2,155.5c1.7-1.5,4-3.1,7-4.7l6.5-3.6c5.9-3.3,9.9-6,12.2-8.4c4.1-4.1,6.2-9.2,6.2-15
			c0-5.5-1.9-10.5-5.7-15c-3.9-4.5-10-6.8-18.2-6.8c-9.9,0-16.9,3.6-20.9,10.6c-2.2,3.9-3.4,9-3.5,15.2v1.5h11.7v-1.5
			c0.1-4,0.7-7.1,1.8-9.2c2-3.9,5.5-5.8,10.8-5.8c3.6,0,6.3,1,8.4,3.1c2.1,2,3.1,4.8,3.1,8.3c0,3-1.1,5.6-3.5,8
			c-1.5,1.6-4.3,3.5-8.3,5.8l-9.1,5.3c-6.3,3.7-10.7,7.9-12.9,12.4l0,0c-2.2,4.5-3.4,9.8-3.8,15.8l-0.1,1.6h49.7V162h-36.5
			C261.3,159.7,262.9,157.5,265.2,155.5z"/>
		<path class="st1" d="M341.9,146.1v-44h-9.5l-31.8,44.1v10.3h29.8v16.6h11.5v-16.6h10v-10.4H341.9z M312.9,146.1l17.3-24.6V146
			L312.9,146.1L312.9,146.1z"/>
	</g>
</g>
</svg>
