<?xml version="1.0" encoding="utf-8"?>
<!-- Generator: Adobe Illustrator 19.2.1, SVG Export Plug-In . SVG Version: 6.00 Build 0)  -->
<svg version="1.1" id="Capa_1" xmlns="http://www.w3.org/2000/svg" xmlns:xlink="http://www.w3.org/1999/xlink" x="0px" y="0px"
	 viewBox="0 0 384.8 386.1" style="enable-background:new 0 0 384.8 386.1;" xml:space="preserve">
<g>
	<g>
		<path d="M288.1,386.1c-5.4-0.9-10.9-1.6-16.3-2.6c-21-3.9-40.7-11.8-59.7-21.2c-31.3-15.4-60.3-34.2-86.4-57.3
			C73.4,258.7,32.1,204.7,8.8,138.1C3,121.5-0.4,104.5,0,86.8c0.4-16.6,5.8-31.3,17.5-43.2C27.7,33.1,38,22.8,48.4,12.6
			C55.1,6.1,63.2,1.9,72.4,0c3.3,0,6.5,0,9.8,0c12.3,2.4,21.2,10.2,29.6,18.8c14.9,15.3,30.3,30.1,44.9,45.7
			c13.7,14.7,13.6,34.5,0.2,49.5c-9.2,10.3-19.3,19.8-29.1,29.5c-2.2,2.1-2.8,3.6-1.3,6.6c10,20.7,24.4,38.3,39.9,54.9
			c15.9,17.1,33.4,32.3,53.1,44.9c5.3,3.4,11,6.1,16.4,9.2c1.9,1.1,3,0.8,4.5-0.7c8.4-8.5,16.8-17,25.3-25.3c5-5,10.4-9.5,17.2-11.9
			c14.8-5.2,27.9-1.8,38.8,8.9c16.9,16.4,33.4,33,49.9,49.8c16.5,16.8,17.8,36.9,2.4,54.6c-11.3,13-23.8,25.2-36.4,37.1
			c-8.8,8.3-19.9,12.4-32,13.8c-0.9,0.1-1.7,0.5-2.5,0.7C298.1,386.1,293.1,386.1,288.1,386.1z M295.6,366.6
			c11.6,0.2,22.4-2.8,30.8-10.9c11.3-10.9,22.2-22.2,32.9-33.7c8-8.7,7.9-18.2-0.3-26.6C342,278,324.8,260.9,307.5,244
			c-6.7-6.6-15.3-6.8-23-1.2c-1.9,1.4-3.7,3.1-5.3,4.8c-9.4,9.3-18.6,18.7-28,28c-6.3,6.2-12.8,7.3-20.6,3.4
			c-5.5-2.8-11-5.6-16.2-8.8c-23.8-14.2-44.6-32.2-63.4-52.5c-17.4-18.8-33.2-38.7-43.8-62.3c-4.6-10.3-3.5-15.8,4.5-23.6
			c9.2-8.9,18.4-17.8,27.4-27c10.5-10.8,10.5-19.5,0.2-30.4c-0.2-0.2-0.3-0.4-0.5-0.5c-15.5-15.5-30.9-31-46.4-46.3
			c-2.5-2.4-5.3-4.8-8.4-6.2c-8.6-4-15.7-0.5-21.8,5.5C52.1,36.4,42.2,46,32.8,56.2c-4.1,4.4-7.6,9.8-10,15.3
			C17.7,84,19,97.1,21.6,110c5.1,25.1,15,48.4,27.4,70.6c21.9,39.3,49.7,73.9,83.1,104.1c33.4,30.2,70.8,54,112.6,70.7
			C261.1,361.9,278,366.1,295.6,366.6z"/>
	</g>
	<g>
		<path d="M225,87.6c1.7-1.5,4-3.1,7-4.7l6.5-3.6c5.9-3.3,9.9-6,12.2-8.4c4.1-4.1,6.2-9.2,6.2-15c0-5.5-1.9-10.5-5.7-15
			c-3.9-4.5-10-6.8-18.2-6.8c-9.9,0-16.9,3.6-20.9,10.6c-2.2,3.9-3.4,9-3.5,15.2l0,1.5h11.7l0-1.5c0.1-4,0.7-7.1,1.8-9.2
			c2-3.9,5.5-5.8,10.8-5.8c3.6,0,6.3,1,8.4,3.1c2.1,2,3.1,4.8,3.1,8.3c0,3-1.1,5.6-3.5,8c-1.5,1.6-4.3,3.5-8.3,5.8l-9.1,5.3
			c-6.3,3.7-10.7,7.9-12.9,12.4v0c-2.2,4.5-3.4,9.8-3.8,15.8l-0.1,1.6h49.7V94.1h-36.5C221.1,91.8,222.7,89.6,225,87.6z"/>
		<path d="M301.7,78.2v-44h-9.5l-31.8,44.1v10.3h29.8v16.6h11.5V88.6h10V78.2H301.7z M272.7,78.2L290,53.6v24.5H272.7z"/>
	</g>
</g>
</svg>
