<?xml version="1.0" encoding="utf-8"?>
<!-- Generator: Adobe Illustrator 19.2.1, SVG Export Plug-In . SVG Version: 6.00 Build 0)  -->
<svg version="1.1" id="Capa_1" xmlns="http://www.w3.org/2000/svg" xmlns:xlink="http://www.w3.org/1999/xlink" x="0px" y="0px"
	 viewBox="0 0 384.8 386.1" style="enable-background:new 0 0 384.8 386.1;" xml:space="preserve">
<g>
	<path d="M380.5,1.3h-65.1c-2.4,0-4.3,1.9-4.3,4.3V13c0,2.4,1.9,4.3,4.3,4.3h49c2.4,0,4.3,1.9,4.3,4.3v49.1c0,2.4,1.9,4.3,4.3,4.3
		h7.4c2.4,0,4.3-1.9,4.3-4.3V5.6C384.8,3.2,382.9,1.3,380.5,1.3z M0,5.6v65.1c0,2.4,1.9,4.3,4.3,4.3h7.4c2.4,0,4.3-1.9,4.3-4.3V21.7
		c0-2.4,1.9-4.3,4.3-4.3h49c2.4,0,4.3-1.9,4.3-4.3V5.6c0-2.4-1.9-4.3-4.3-4.3H4.3C1.9,1.3,0,3.2,0,5.6z M368.7,316.7v49
		c0,2.4-1.9,4.3-4.3,4.3h-49c-2.4,0-4.3,1.9-4.3,4.3v7.4c0,2.4,1.9,4.3,4.3,4.3h65.1c2.4,0,4.3-1.9,4.3-4.3v-65.1
		c0-2.4-1.9-4.3-4.3-4.3h-7.4C370.7,312.3,368.7,314.3,368.7,316.7z M11.7,312.3H4.3c-2.4,0-4.3,1.9-4.3,4.3v65.1
		c0,2.4,1.9,4.3,4.3,4.3h65.1c2.4,0,4.3-1.9,4.3-4.3v-7.4c0-2.4-1.9-4.3-4.3-4.3h-49c-2.4,0-4.3-1.9-4.3-4.3v-49
		C16.1,314.3,14.1,312.3,11.7,312.3z"/>
	<g>
		<path d="M218.2,340.6c-36.4-12.8-59.3-39-71.9-74.5c-6.8-19.1-4.6-38.1,7.4-54.9c11.8-16.5,28.3-23.6,48.3-19.5
			c20.3,4.1,33.2,17.2,38.4,37.1c1.7,6.5,1.4,13.6,1.9,20.5c0.7,9.7,5,17.2,13.5,22c15,8.5,34-0.8,37-18.1
			c1.8-10.3,0.4-20.6-1.7-30.7c-6.8-31.5-23.2-56.4-51.3-72.7c-37.2-21.5-84.9-15.1-115.7,15c-39.1,38.2-43.6,98.6-10.5,142.1
			c2,2.6,3.6,5.2,3,8.6c-0.8,3.8-2.9,6.4-6.8,7.4c-4,1-7.3-0.4-9.8-3.6c-9.4-12-16.4-25.3-21-39.8c-17.8-55.7,5.8-116.7,56.5-145.8
			c45.9-26.4,105.5-17,141.4,22.3c24.3,26.5,35.6,57.9,34.9,93.7c-0.4,22.9-18.8,41.6-41.8,43.1c-21.8,1.4-42.1-15.3-45.4-37.5
			c-0.9-6.1-0.5-12.4-1.2-18.6c-2.2-19.2-22.2-32.4-39.9-26.2c-12.4,4.4-18.8,14.3-21.4,26.7c-2.5,11.8,0.3,23,5.4,33.6
			c9.7,20.1,24.3,35.8,43.2,47.4c3.5,2.1,7.7,3.1,11.7,4.1c4,0.9,7.3,3.7,7.9,7.7c0.7,4.1-1.2,7.9-4.9,9.8c-0.7,0.3-1.4,0.7-2.1,1
			C221.7,340.6,219.9,340.6,218.2,340.6z"/>
		<path d="M161.4,340.6c-2.2-1.6-4.7-2.9-6.5-4.9c-17.1-18.6-31.6-39-40.9-62.8c-17-43.5,3.2-89.4,40.1-108.8
			c39.5-20.8,88.7-6,111.1,33.5c7.5,13.2,11.4,27.4,11.6,42.6c0.1,6.3-3.3,10.4-8.8,10.6c-5.5,0.2-9.4-3.8-9.6-10.2
			c-0.5-20-7.9-37-22.6-50.6c-31.8-29.2-82.2-19.5-102,19.5c-10.3,20.4-10,41-0.9,61.7c8.8,19.9,21.5,37.1,36.2,53
			c3.9,4.2,4.5,9.4,1.1,13.1c-1.3,1.4-3.2,2.2-4.9,3.3C164.1,340.6,162.8,340.6,161.4,340.6z"/>
		<path d="M202.1,46.8c5.7,0.8,11.4,1.3,17,2.3c31.4,5.3,58.9,18.9,82.6,40.1c4.4,4,4.9,9.4,1.3,13.5c-3.6,4-9.1,4.2-13.5,0.2
			c-16.1-14.4-34.3-25.3-55.1-31.3c-48.2-13.9-92.1-5.1-131.9,25.3c-2.6,2-5,4.2-7.5,6.3c-4.3,3.7-9.9,3.5-13.3-0.4
			c-3.5-3.9-3.1-9.5,1.1-13.3c24.8-22.3,53.7-36.1,86.8-40.9c4.3-0.6,8.7-1.1,13-1.7C189.1,46.8,195.6,46.8,202.1,46.8z"/>
		<path d="M193.2,82.5c52.7,1.7,94.8,24.5,125.7,68.3c3.3,4.8,2.4,10.4-2.1,13.4c-4.4,2.9-9.8,1.7-13.2-3.2
			c-15.3-22.2-35.1-38.9-60-49.5c-53.6-22.6-115.9-7.5-153.2,37.3c-3.3,4-6.3,8.1-9.4,12.3c-3.5,4.7-8.9,6-13.2,3
			c-4.4-3.1-5.3-8.6-1.9-13.4C90,116,122.6,94,164.1,85.4c3.9-0.8,7.9-1.4,11.9-1.8C181.4,83.1,186.9,82.9,193.2,82.5z"/>
		<path d="M182.4,238.8c0.2-2.1,0.1-4.1,0.6-5.9c1.2-4.2,5.4-6.9,9.7-6.4c4.5,0.5,7.8,4.1,8.2,8.9c0.4,4.4,0.4,8.8,1.3,13.1
			c4.8,22.1,16.3,39.5,36.1,51c5.2,3,10.9,4.6,16.9,4.9c5.8,0.3,9.8,4.4,9.4,9.7c-0.3,5.3-4.7,8.9-10.5,8.6
			c-13.2-0.7-24.6-6-34.7-14.1C196.9,290.6,184.5,267.3,182.4,238.8z"/>
	</g>
</g>
</svg>
