<?xml version="1.0" encoding="utf-8"?>
<!-- Generator: Adobe Illustrator 19.2.1, SVG Export Plug-In . SVG Version: 6.00 Build 0)  -->
<svg version="1.1" id="Capa_1" xmlns="http://www.w3.org/2000/svg" xmlns:xlink="http://www.w3.org/1999/xlink" x="0px" y="0px"
	 viewBox="0 0 442.8 453.7" style="enable-background:new 0 0 442.8 453.7;" xml:space="preserve">
<style type="text/css">
	.st0{display:none;}
	.st1{display:inline;fill:#F1FFE6;}
	.st2{display:inline;fill:#9CDA41;}
	.st3{display:inline;}
	.st4{fill:#9CDA41;}
	.st5{fill:#F8E7F9;}
	.st6{fill:#C158E3;}
</style>
<g class="st0">
	<path class="st1" d="M347.6,25.3c52.5,32.5,85.2,98.4,93.4,167.7c7.9,69.4-8.7,142.5-54.4,192.7s-120.4,77.9-184.1,65.2
		s-116.3-65.2-154-127s-61-132.3-41.4-188.4C26.5,79,88.3,36.9,155.5,15.3C222.5-6,295.1-7.3,347.6,25.3z"/>
</g>
<g class="st0">
	<path class="st2" d="M420.5,29.1h-65.1c-2.4,0-4.3,1.9-4.3,4.3v7.4c0,2.4,1.9,4.3,4.3,4.3h49c2.4,0,4.3,1.9,4.3,4.3v49.1
		c0,2.4,1.9,4.3,4.3,4.3h7.4c2.4,0,4.3-1.9,4.3-4.3V33.4C424.8,31,422.9,29.1,420.5,29.1z M40,33.4v65.1c0,2.4,1.9,4.3,4.3,4.3h7.4
		c2.4,0,4.3-1.9,4.3-4.3v-49c0-2.4,1.9-4.3,4.3-4.3h49c2.4,0,4.3-1.9,4.3-4.3v-7.5c0-2.4-1.9-4.3-4.3-4.3h-65
		C41.9,29.1,40,31,40,33.4z M408.7,344.5v49c0,2.4-1.9,4.3-4.3,4.3h-49c-2.4,0-4.3,1.9-4.3,4.3v7.4c0,2.4,1.9,4.3,4.3,4.3h65.1
		c2.4,0,4.3-1.9,4.3-4.3v-65.1c0-2.4-1.9-4.3-4.3-4.3h-7.4C410.7,340.1,408.7,342.1,408.7,344.5z M51.7,340.1h-7.4
		c-2.4,0-4.3,1.9-4.3,4.3v65.1c0,2.4,1.9,4.3,4.3,4.3h65.1c2.4,0,4.3-1.9,4.3-4.3v-7.4c0-2.4-1.9-4.3-4.3-4.3h-49
		c-2.4,0-4.3-1.9-4.3-4.3v-49C56.1,342.1,54.1,340.1,51.7,340.1z"/>
	<g class="st3">
		<path class="st4" d="M258.2,368.4c-36.4-12.8-59.3-39-71.9-74.5c-6.8-19.1-4.6-38.1,7.4-54.9c11.8-16.5,28.3-23.6,48.3-19.5
			c20.3,4.1,33.2,17.2,38.4,37.1c1.7,6.5,1.4,13.6,1.9,20.5c0.7,9.7,5,17.2,13.5,22c15,8.5,34-0.8,37-18.1
			c1.8-10.3,0.4-20.6-1.7-30.7c-6.8-31.5-23.2-56.4-51.3-72.7c-37.2-21.5-84.9-15.1-115.7,15c-39.1,38.2-43.6,98.6-10.5,142.1
			c2,2.6,3.6,5.2,3,8.6c-0.8,3.8-2.9,6.4-6.8,7.4c-4,1-7.3-0.4-9.8-3.6c-9.4-12-16.4-25.3-21-39.8c-17.8-55.7,5.8-116.7,56.5-145.8
			c45.9-26.4,105.5-17,141.4,22.3c24.3,26.5,35.6,57.9,34.9,93.7c-0.4,22.9-18.8,41.6-41.8,43.1c-21.8,1.4-42.1-15.3-45.4-37.5
			c-0.9-6.1-0.5-12.4-1.2-18.6c-2.2-19.2-22.2-32.4-39.9-26.2c-12.4,4.4-18.8,14.3-21.4,26.7c-2.5,11.8,0.3,23,5.4,33.6
			c9.7,20.1,24.3,35.8,43.2,47.4c3.5,2.1,7.7,3.1,11.7,4.1c4,0.9,7.3,3.7,7.9,7.7c0.7,4.1-1.2,7.9-4.9,9.8c-0.7,0.3-1.4,0.7-2.1,1
			C261.7,368.4,259.9,368.4,258.2,368.4z"/>
		<path class="st4" d="M201.4,368.4c-2.2-1.6-4.7-2.9-6.5-4.9c-17.1-18.6-31.6-39-40.9-62.8c-17-43.5,3.2-89.4,40.1-108.8
			c39.5-20.8,88.7-6,111.1,33.5c7.5,13.2,11.4,27.4,11.6,42.6c0.1,6.3-3.3,10.4-8.8,10.6s-9.4-3.8-9.6-10.2
			c-0.5-20-7.9-37-22.6-50.6c-31.8-29.2-82.2-19.5-102,19.5c-10.3,20.4-10,41-0.9,61.7c8.8,19.9,21.5,37.1,36.2,53
			c3.9,4.2,4.5,9.4,1.1,13.1c-1.3,1.4-3.2,2.2-4.9,3.3C204.1,368.4,202.8,368.4,201.4,368.4z"/>
		<path class="st4" d="M242.1,74.6c5.7,0.8,11.4,1.3,17,2.3c31.4,5.3,58.9,18.9,82.6,40.1c4.4,4,4.9,9.4,1.3,13.5
			c-3.6,4-9.1,4.2-13.5,0.2c-16.1-14.4-34.3-25.3-55.1-31.3c-48.2-13.9-92.1-5.1-131.9,25.3c-2.6,2-5,4.2-7.5,6.3
			c-4.3,3.7-9.9,3.5-13.3-0.4c-3.5-3.9-3.1-9.5,1.1-13.3c24.8-22.3,53.7-36.1,86.8-40.9c4.3-0.6,8.7-1.1,13-1.7
			C229.1,74.6,235.6,74.6,242.1,74.6z"/>
		<path class="st4" d="M233.2,110.3c52.7,1.7,94.8,24.5,125.7,68.3c3.3,4.8,2.4,10.4-2.1,13.4c-4.4,2.9-9.8,1.7-13.2-3.2
			c-15.3-22.2-35.1-38.9-60-49.5c-53.6-22.6-115.9-7.5-153.2,37.3c-3.3,4-6.3,8.1-9.4,12.3c-3.5,4.7-8.9,6-13.2,3
			c-4.4-3.1-5.3-8.6-1.9-13.4c24.1-34.7,56.7-56.7,98.2-65.3c3.9-0.8,7.9-1.4,11.9-1.8C221.4,110.9,226.9,110.7,233.2,110.3z"/>
		<path class="st4" d="M222.4,266.6c0.2-2.1,0.1-4.1,0.6-5.9c1.2-4.2,5.4-6.9,9.7-6.4c4.5,0.5,7.8,4.1,8.2,8.9
			c0.4,4.4,0.4,8.8,1.3,13.1c4.8,22.1,16.3,39.5,36.1,51c5.2,3,10.9,4.6,16.9,4.9c5.8,0.3,9.8,4.4,9.4,9.7
			c-0.3,5.3-4.7,8.9-10.5,8.6c-13.2-0.7-24.6-6-34.7-14.1C236.9,318.4,224.5,295.1,222.4,266.6z"/>
	</g>
</g>
<g>
	<g>
		<path class="st5" d="M45.7,308C12,252.8-0.9,213.8,0,176.3c0.7-29.7,13.8-57.6,35.7-77.5c22.6-20.5,56.5-42,98.8-53.2
			c72.2-19.1,229.9-57.6,281.2-16c50.8,41.5,19,182.3-7.6,275.9c-26.7,93.1-60.4,128.1-140.7,134.4C187.5,446.3,91.3,382,45.7,308z"
			/>
	</g>
	<g>
		<g>
			<path class="st6" d="M286.4,414.4c-4.8-0.8-9.7-1.4-14.5-2.3c-18.7-3.5-36.2-10.5-53.1-18.8c-27.8-13.7-53.6-30.4-76.8-50.9
				C95.7,301.2,59,253.3,38.3,194.1c-5.2-14.8-8.2-29.9-7.8-45.6c0.4-14.8,5.2-27.8,15.6-38.4c9.1-9.3,18.2-18.5,27.5-27.5
				c6-5.8,13.2-9.5,21.3-11.2c2.9,0,5.8,0,8.7,0c10.9,2.1,18.8,9.1,26.3,16.7c13.2,13.6,26.9,26.7,39.9,40.6
				c12.2,13.1,12.1,30.7,0.2,44c-8.2,9.2-17.2,17.6-25.9,26.2c-2,1.9-2.5,3.2-1.2,5.9c8.9,18.4,21.7,34,35.5,48.8
				c14.1,15.2,29.7,28.7,47.2,39.9c4.7,3,9.8,5.4,14.6,8.2c1.7,1,2.7,0.7,4-0.6c7.5-7.6,14.9-15.1,22.5-22.5
				c4.4-4.4,9.2-8.4,15.3-10.6c13.2-4.6,24.8-1.6,34.5,7.9c15,14.6,29.7,29.3,44.3,44.3s15.8,32.8,2.1,48.5
				c-10,11.6-21.1,22.4-32.3,33c-7.8,7.4-17.7,11-28.4,12.3c-0.8,0.1-1.5,0.4-2.2,0.6C295.3,414.4,290.9,414.4,286.4,414.4z
				 M293.1,397.1c10.3,0.2,19.9-2.5,27.4-9.7c10-9.7,19.7-19.7,29.2-29.9c7.1-7.7,7-16.2-0.3-23.6c-15.1-15.5-30.4-30.7-45.8-45.7
				c-6-5.9-13.6-6-20.4-1.1c-1.7,1.2-3.3,2.8-4.7,4.3c-8.4,8.3-16.5,16.6-24.9,24.9c-5.6,5.5-11.4,6.5-18.3,3
				c-4.9-2.5-9.8-5-14.4-7.8c-21.1-12.6-39.6-28.6-56.3-46.7c-15.5-16.7-29.5-34.4-38.9-55.4c-4.1-9.2-3.1-14,4-21
				c8.2-7.9,16.4-15.8,24.3-24c9.3-9.6,9.3-17.3,0.2-27c-0.2-0.2-0.3-0.4-0.4-0.4c-13.8-13.8-27.5-27.5-41.2-41.1
				c-2.2-2.1-4.7-4.3-7.5-5.5c-7.6-3.6-14-0.4-19.4,4.9c-9,8.4-17.8,17-26.1,26c-3.6,3.9-6.8,8.7-8.9,13.6
				c-4.5,11.1-3.4,22.7-1.1,34.2c4.5,22.3,13.3,43,24.3,62.7c19.5,34.9,44.2,65.7,73.8,92.5c29.7,26.8,62.9,48,100.1,62.8
				C262.5,392.9,277.5,396.7,293.1,397.1z"/>
		</g>
		<g>
			<path class="st6" d="M230.4,149.2c1.5-1.3,3.6-2.8,6.2-4.2l5.8-3.2c5.2-2.9,8.8-5.3,10.8-7.5c3.6-3.6,5.5-8.2,5.5-13.3
				c0-4.9-1.7-9.3-5.1-13.3c-3.5-4-8.9-6-16.2-6c-8.8,0-15,3.2-18.6,9.4c-2,3.5-3,8-3.1,13.5v1.3h10.4v-1.3c0.1-3.6,0.6-6.3,1.6-8.2
				c1.8-3.5,4.9-5.2,9.6-5.2c3.2,0,5.6,0.9,7.5,2.8c1.9,1.8,2.8,4.3,2.8,7.4c0,2.7-1,5-3.1,7.1c-1.3,1.4-3.8,3.1-7.4,5.2l-8.1,4.7
				c-5.6,3.3-9.5,7-11.5,11l0,0c-2,4-3,8.7-3.4,14l-0.1,1.4h44.2V155h-32.4C226.9,152.9,228.3,151,230.4,149.2z"/>
			<path class="st6" d="M298.5,140.8v-39.1h-8.4l-28.3,39.2v9.2h26.5v14.8h10.2v-14.8h8.9v-9.2L298.5,140.8L298.5,140.8z
				 M272.8,140.8l15.4-21.9v21.8L272.8,140.8L272.8,140.8z"/>
		</g>
	</g>
</g>
</svg>
