<?xml version="1.0" encoding="utf-8"?>
<!-- Generator: Adobe Illustrator 19.2.1, SVG Export Plug-In . SVG Version: 6.00 Build 0)  -->
<svg version="1.1" id="Capa_1" xmlns="http://www.w3.org/2000/svg" xmlns:xlink="http://www.w3.org/1999/xlink" x="0px" y="0px"
	 viewBox="0 0 384 384" style="enable-background:new 0 0 384 384;" xml:space="preserve">
<g>
	<path d="M0,204c0-8,0-16,0-24c0.2-1.1,0.6-2.2,0.6-3.3c3.1-38.1,16.3-72.4,39.9-102.4c30.6-38.8,70.3-62.9,119.1-71.5
		c6.7-1.2,13.5-1.9,20.3-2.9c8,0,16,0,24,0c1,0.2,1.9,0.5,2.9,0.6c38.8,3.1,73.6,16.6,103.9,40.9c38.1,30.4,61.7,69.7,70.3,117.8
		c1.2,6.9,1.9,13.8,2.9,20.7c0,8,0,16,0,24c-0.2,1-0.5,1.9-0.6,2.9c-1.5,9.8-2.5,19.8-4.7,29.5c-17.1,73.8-79.1,132.1-153.6,144.7
		c-7,1.2-14,2-21.1,2.9c-8,0-16,0-24,0c-0.8-0.2-1.7-0.5-2.5-0.6c-36.5-2.8-69.6-14.9-98.9-36.8C37.6,316,12.2,275.5,3,225.1
		C1.7,218.1,1,211,0,204z M23.7,177.4c-9.4,38.5,21,118.1,52.7,137.7C83,299.3,92.5,285.5,104,273c24.4-26.7,53.9-46.3,86.5-61.4
		c8.3-3.9,16.9-7.2,26-11.1c-6.6-15.4-13.1-30.7-19.7-46.1C140,172.7,82.8,182.6,23.7,177.4z M223.7,222.2
		c-39.6,14.8-74.6,35.1-103,65.6c-10.9,11.7-19.8,24.7-25.2,39.9c-0.7,2.1-0.6,3.4,1.5,4.5c8.2,4.5,16,9.8,24.5,13.7
		c40,18.2,81.1,20.3,123,7.2c2-0.6,3-1.4,2.8-3.9c-2.3-33.3-7.2-66.2-15.6-98.6C229.3,241.4,226.5,232.1,223.7,222.2z M117.5,39.8
		C90.1,53.4,67.8,72.9,50.8,98.3c-11.5,17.3-19.7,36-24.2,56.7c54.9,4.7,107.4-4.4,159.1-20.7C174.2,109.6,135.5,56.2,117.5,39.8z
		 M269.3,342.8c27.3-14.4,49-34.1,65.4-59.6c13.9-21.6,22.4-45.2,25.5-71c-38.9-9.7-77-6.8-115.3,3.5
		C258.2,257.1,266.1,299.3,269.3,342.8z M141.1,30.6C153,46.1,165.4,61.1,176.6,77c11.1,15.9,21,32.7,31.6,49.5
		c5-2,10.6-4.1,16.1-6.5c23.7-10.1,46.7-21.5,66.9-37.7c5.5-4.4,10.4-9.6,15.6-14.5C262,24.8,194,12.3,141.1,30.6z M361.5,189.2
		c-1.1-39.8-14.1-74.7-39-105.3c-29.1,31-66.7,47.4-104.4,63.1c6.7,15.8,13.2,31.3,19.9,47C278.6,182.9,319.6,179.9,361.5,189.2z"/>
</g>
</svg>
