<?xml version="1.0" encoding="utf-8"?>
<!-- Generator: Adobe Illustrator 19.2.1, SVG Export Plug-In . SVG Version: 6.00 Build 0)  -->
<svg version="1.1" id="Capa_1" xmlns="http://www.w3.org/2000/svg" xmlns:xlink="http://www.w3.org/1999/xlink" x="0px" y="0px"
	 viewBox="0 0 307.1 306.5" style="enable-background:new 0 0 307.1 306.5;" xml:space="preserve">
<g>
	<path d="M199.9,303.4c0-13.5-0.3-26.5,0.1-39.5c0.6-16.4-1.3-31.9-14.7-44.1c7.6-2.6,14.3-4.4,20.7-7.1
		c40.5-16.9,52.3-58.8,26.4-94.2c-3.1-4.2-3.4-7.9-3.1-12.7c0.5-10.7,0-21.5-0.3-32.2c-0.2-6.6-4.3-8.8-9.9-6.3
		c-10.4,4.6-20.4,10.1-30.8,15c-2.8,1.3-6.3,2.7-9,2.1c-16.8-3.6-33.5-3.6-50.3,0c-2.8,0.6-6.3-0.7-9-2c-10.3-4.8-20.3-10.4-30.8-15
		c-5.4-2.4-9.8-0.5-9.9,6.2C79,84.2,78.4,95,79.3,105.6c0.5,5.1-0.2,8.4-3.2,12.5c-18.4,24.5-18.4,56.1-0.1,76.6
		c11.5,13,26.8,19.4,43.2,23.5c0.9,0.2,1.8,0.5,1.6,0.4c-3.9,8.9-7.5,17.8-11.6,26.5c-0.9,1.8-3.5,3.3-5.6,3.8
		c-11.4,2.5-20.7-0.9-27.8-10.3c-3.8-5.1-7.7-10.2-12.1-14.7c-4.3-4.3-9.8-6-17.9-0.9c1.7,0.7,4,1,5.1,2.3
		c3.7,4.4,8.3,8.7,10.3,13.9c11,28.1,15.9,31.7,46.6,30.7c0,11,0,22.1,0,33.1C56.4,289.6-4.8,232.1,1.6,146.7
		C7.5,68,72.2,6.6,149.2,5C228,3.4,296,60.9,305.8,136.2C316.9,222.3,258.9,287,199.9,303.4z"/>
</g>
</svg>
