<?xml version="1.0" encoding="utf-8"?>
<!-- Generator: Adobe Illustrator 19.2.1, SVG Export Plug-In . SVG Version: 6.00 Build 0)  -->
<svg version="1.1" id="Capa_1" xmlns="http://www.w3.org/2000/svg" xmlns:xlink="http://www.w3.org/1999/xlink" x="0px" y="0px"
	 viewBox="0 0 307.1 306.5" style="enable-background:new 0 0 307.1 306.5;" xml:space="preserve">
<g>
	<path d="M102.3,120.2c-6.6,27.1-13.3,54.2-19.9,81.3c-0.3,0-0.6,0-0.9,0c-5.8,0-11.7,0-17.5,0c-0.7,0-1-0.2-1.1-0.9
		c-3.7-16.5-7.5-33-11.2-49.5c-0.1-0.4-0.2-0.8-0.5-1.2c-3.9,17.2-7.8,34.4-11.7,51.6c-6.5,0-12.8,0-19.3,0
		c-6.7-27.2-13.3-54.5-20-81.8c6.8,0,13.6,0,20.5,0c3.2,16.2,6.4,32.5,9.6,48.7c0.1,0,0.1,0,0.2,0c3.5-16.2,7.1-32.4,10.6-48.7
		c6.8,0,13.6,0,20.5,0c3.5,16.2,7.1,32.4,10.6,48.6c0.1,0,0.1,0,0.2,0c3.2-16.2,6.4-32.4,9.6-48.7c13.6,0,27.2,0,40.9,0
		c3.2,16.2,6.4,32.5,9.6,48.7c0.1,0,0.1,0,0.2,0c3.5-16.2,7.1-32.4,10.6-48.7c6.8,0,13.6,0,20.5,0c3.5,16.2,7.1,32.4,10.6,48.6
		c0.1,0,0.1,0,0.2,0c3.2-16.2,6.4-32.4,9.6-48.7c13.7,0,27.3,0,40.9,0c3.2,16.3,6.4,32.5,9.6,48.7c0.1,0,0.1,0,0.2,0
		c3.5-16.2,7.1-32.4,10.6-48.7c6.8,0,13.6,0,20.5,0c3.5,16.2,7.1,32.5,10.6,48.7c0.1,0,0.1,0,0.2,0c3.2-16.2,6.4-32.5,9.6-48.7
		c6.8,0,13.6,0,20.4,0c-0.5,2-0.9,3.9-1.4,5.8c-6.1,25-12.2,50-18.3,75c-0.2,0.8-0.5,1-1.3,1c-5.7,0-11.5,0-17.2,0
		c-0.3,0-0.7,0-1.1,0c-3.9-17.2-7.8-34.4-11.7-51.6c-0.1,0-0.1,0-0.2,0c-0.1,0.4-0.2,0.8-0.3,1.2c-3.7,16.5-7.5,33-11.2,49.5
		c-0.2,0.7-0.4,1-1.2,1c-5.8,0-11.6,0-17.4,0c-0.8,0-1-0.2-1.2-1c-6.4-26.4-12.9-52.8-19.4-79.2c-0.1-0.4-0.2-0.8-0.5-1.2
		c-6.6,27.1-13.3,54.2-19.9,81.3c-6.5,0-12.8,0-19.3,0c-3.9-17.2-7.8-34.4-11.7-51.6c-0.1,0-0.2,0-0.3,0
		c-3.9,17.2-7.8,34.4-11.7,51.6c-6.4,0-12.8,0-19.3,0c-6.6-27.1-13.3-54.2-19.9-81.3C102.4,120.2,102.4,120.2,102.3,120.2z"/>
	<path d="M199.4,47.9c10.1,15.8,16.3,33.1,20.4,51.3c-7.1,0-14.1,0-21.2,0c-0.5-2-1.1-4.1-1.7-6.2c-3.5-12-8-23.5-14.7-34
		c-4.1-6.4-8.8-12.1-15.1-16.5c-4.2-2.8-8.7-4.7-13.8-4.6c-4.7,0.1-8.9,1.8-12.8,4.3c-5.8,3.8-10.3,9-14.2,14.7
		c-6.6,9.6-11.1,20.3-14.7,31.3c-1.1,3.6-2.1,7.2-3.2,10.9c-7,0-14,0-21.1,0c4-18.2,10.3-35.6,20.3-51.5c-1.2,0.6-2.4,1.1-3.5,1.7
		C82.3,60.3,65.7,76.5,54.2,98c-0.5,1-1.1,1.3-2.2,1.3c-6.6-0.1-13.2,0-19.8,0c-0.4,0-0.7,0-1.3,0c7.9-18.7,19.3-34.8,34.4-48.1
		c23.1-20.4,50.1-31.8,80.9-33.5c65.6-3.5,113.3,39.4,130,81.6c-0.4,0-0.7,0-1,0c-6.8,0-13.6,0-20.4,0c-0.8,0-1.2-0.3-1.6-1
		c-10.2-19.3-24.8-34.4-43.6-45.4c-3.2-1.9-6.6-3.5-9.9-5.3C199.5,47.7,199.5,47.8,199.4,47.9z"/>
	<path d="M41.8,222c3.2,0,6.3,0,9.4,0c4.8,0,9.7,0,14.5,0c0.8,0,1.4,0.3,1.9,0.9c10.4,12.3,22.8,21.8,37.3,28.8
		c0.9,0.4,1.8,0.8,3,1.4c-6.3-9.8-11.1-20.1-14.8-31c0.4,0,0.7,0,1.1,0c6.6,0,13.3,0,19.9,0c0.8,0,1.1,0.2,1.4,1
		c3.5,8.6,7.7,16.8,13.3,24.2c3.8,5,8.2,9.4,13.7,12.6c7.8,4.5,15.6,4.2,23.2-0.5c6.2-3.8,10.9-9.2,15-15.1
		c4.6-6.6,8.1-13.7,11.1-21.1c0.3-0.7,0.6-1,1.4-0.9c6.6,0,13.3,0,19.9,0c0.3,0,0.6,0,1.1,0c-3.7,10.9-8.5,21.1-14.8,31
		c1.1-0.5,1.9-0.9,2.8-1.3c14.4-6.9,26.8-16.4,37.2-28.6c0.7-0.9,1.4-1.2,2.6-1.2c7.4,0.1,14.9,0,22.3,0c0.4,0,0.7,0,1.3,0
		c-11.2,17.2-25.3,31.1-42.7,41.8c-17.3,10.7-36.2,17-56.4,18.9C109.9,288.1,64.3,257.9,41.8,222z"/>
</g>
</svg>
