<?xml version="1.0" encoding="utf-8"?>
<!-- Generator: Adobe Illustrator 19.2.1, SVG Export Plug-In . SVG Version: 6.00 Build 0)  -->
<svg version="1.1" id="Capa_1" xmlns="http://www.w3.org/2000/svg" xmlns:xlink="http://www.w3.org/1999/xlink" x="0px" y="0px"
	 viewBox="0 0 327.7 327.7" style="enable-background:new 0 0 327.7 327.7;" xml:space="preserve">
<g>
	<path d="M327.7,75.5c0,58.9,0,117.8,0,176.6c-0.4,2.3-0.8,4.6-1.2,6.9c-5.7,30.1-22.7,51.1-50.9,62.7c-7.4,3-15.6,4-23.4,5.9
		c-58.9,0-117.8,0-176.6,0c-2.3-0.4-4.6-0.8-6.9-1.2c-30.1-5.7-51.1-22.7-62.7-50.9c-3-7.4-4-15.6-5.9-23.4c0-58.9,0-117.8,0-176.6
		c0.4-2.3,0.8-4.6,1.2-6.9C6.9,38.6,23.9,17.5,52.1,5.9c7.4-3,15.6-4,23.4-5.9c58.9,0,117.8,0,176.6,0c2.3,0.4,4.6,0.8,6.9,1.2
		c30.1,5.7,51.1,22.7,62.7,50.9C324.8,59.5,325.8,67.7,327.7,75.5z M300.2,163.9c0,0,0.1,0,0.1,0c0-26.7,0-53.3,0-80
		c0-8.5-1.1-16.8-4.9-24.5c-10.4-21-27.4-31.9-50.8-31.9c-53.9-0.1-107.7-0.1-161.6,0c-3.3,0-6.6,0.3-9.9,0.8
		c-24.8,3.5-45.4,25.9-45.5,51.1c-0.4,55.8-0.2,111.6-0.2,167.3c0,7.6,1.5,14.9,4.8,21.7c10.3,21,27.3,32,50.7,32.1
		c54,0.2,107.9,0.1,161.9,0c3.3,0,6.6-0.3,9.9-0.8c24.3-3.4,45-26,45.4-50.6C300.5,220.6,300.2,192.2,300.2,163.9z"/>
	<path d="M245.8,163.8c0,45.1-37,82.1-82.1,81.9c-45.1-0.2-81.7-36.9-81.8-81.9c0-45.2,37-82.1,82.1-81.9
		C209.1,82.1,245.8,118.8,245.8,163.8z M163.9,109.3c-30.1,0-54.5,24.2-54.6,54.4c-0.1,30.1,24.1,54.5,54.3,54.7
		c30.2,0.2,54.8-24.3,54.8-54.6C218.4,133.6,194.1,109.4,163.9,109.3z"/>
	<path d="M252.7,95.5c-11.4,0.1-20.5-9-20.5-20.4c0-11.2,9-20.3,20.2-20.4c11.1-0.2,20.6,9.3,20.6,20.5
		C273.1,86.3,263.9,95.4,252.7,95.5z"/>
</g>
</svg>
