<?xml version="1.0" encoding="utf-8"?>
<!-- Generator: Adobe Illustrator 19.2.1, SVG Export Plug-In . SVG Version: 6.00 Build 0)  -->
<svg version="1.1" id="Capa_1" xmlns="http://www.w3.org/2000/svg" xmlns:xlink="http://www.w3.org/1999/xlink" x="0px" y="0px"
	 viewBox="0 0 307.1 306.5" style="enable-background:new 0 0 307.1 306.5;" xml:space="preserve">
<g>
	<path d="M172.4,307.2c-21.4,0-42.2,0-63.4,0c0-68.2,0-136.3,0-204.8c20,0,40.1,0,60.6,0c0,9.1,0,18.1,0,27.6
		c0.8-0.5,1.2-0.6,1.4-0.8c13.4-21.6,33.4-31.1,58.1-31.8c14.1-0.4,27.9,1.3,40.9,7.4c16.8,7.9,26.2,21.8,31.4,39
		c4.1,13.6,5.6,27.7,5.7,41.8c0.3,39.6,0.2,79.2,0.2,118.9c0,0.6-0.1,1.2-0.1,2c-21.1,0-42.1,0-63.6,0c0-1.4,0-2.8,0-4.3
		c0-33.5,0.1-67-0.1-100.5c-0.1-7.6-0.7-15.3-2-22.7c-3.9-21-17.5-28.1-37-25.8c-17.8,2.1-27.6,12.5-30.4,31.8
		c-1,7-1.5,14.2-1.5,21.3c-0.2,32-0.1,64-0.1,96C172.4,303.8,172.4,305.3,172.4,307.2z"/>
	<path d="M5.3,102.4c21.3,0,42.2,0,63.3,0c0,68.3,0,136.3,0,204.7c-21.1,0-42.1,0-63.3,0C5.3,238.8,5.3,170.8,5.3,102.4z"/>
	<path d="M73.7,36.8C73.8,57.1,57.3,74,37.2,74.1C16.9,74.2,0,57.3,0,36.9C0,16.8,16.5,0.2,36.6,0C56.9-0.2,73.6,16.3,73.7,36.8z"/>
</g>
</svg>
