<?xml version="1.0" encoding="utf-8"?>
<!-- Generator: Adobe Illustrator 19.2.1, SVG Export Plug-In . SVG Version: 6.00 Build 0)  -->
<svg version="1.1" id="Capa_1" xmlns="http://www.w3.org/2000/svg" xmlns:xlink="http://www.w3.org/1999/xlink" x="0px" y="0px"
	 viewBox="0 0 307.1 306.5" style="enable-background:new 0 0 307.1 306.5;" xml:space="preserve">
<path d="M289.4,268.4H19c-9.9,0-17.9-8-17.9-17.9V55.4c0-9.9,8-17.9,17.9-17.9h270.4c9.9,0,17.9,8,17.9,17.9v195.1
	C307.3,260.4,299.3,268.4,289.4,268.4z M272.3,60c-0.2-0.3-0.4-0.6-0.7-0.8H37.9c0.7,0.8,1.1,1.3,1.6,1.8
	c34.9,35.4,69.9,70.8,104.8,106.2c6,6,15,5.8,21.1-0.3c28.4-28.6,56.7-57.1,85.1-85.6C257.7,74,265,67.1,272.3,60 M270.9,246.9
	c-25.9-26.5-51.3-52.5-76.7-78.5c-4.6,4.5-9,8.8-13.4,13.1c-15.2,15.2-37.3,15.2-52.5-0.1c-4.5-4.5-9.1-8.9-13.8-13.5
	c-25.5,26.1-51.1,52.3-77.1,78.9H270.9z M99.9,152.6c-25.7-26.1-51.2-51.9-77.1-78.2v157.1C48.7,205,74.2,178.9,99.9,152.6
	 M209,152.9c25.6,26.3,51,52.2,76.6,78.5V77.8C260.4,102.5,234.8,127.6,209,152.9"/>
</svg>
