<?xml version="1.0" encoding="utf-8"?>
<!-- Generator: Adobe Illustrator 19.2.1, SVG Export Plug-In . SVG Version: 6.00 Build 0)  -->
<svg version="1.1" id="Capa_1" xmlns="http://www.w3.org/2000/svg" xmlns:xlink="http://www.w3.org/1999/xlink" x="0px" y="0px"
	 viewBox="0 0 726.9 744.3" style="enable-background:new 0 0 726.9 744.3;" xml:space="preserve">
<g>
	<path d="M64,744.3c-21.3,0-42.6,0-64,0c1.9-2.5,3.7-5.1,5.7-7.4C90.8,637.9,176,539,261.1,440.1c7.5-8.8,15-17.6,22.4-26.3
		c-1.3-2-2.2-3.4-3.2-4.8C188.8,275.7,97.2,142.5,5.6,9.2C3.6,6.2,1.9,3.1,0,0c72.2,0,144.4,0,216.6,0c0.6,1.1,1,2.2,1.7,3.2
		c61,88.8,122,177.6,183,266.4c0.9,1.3,1.6,2.8,2.5,4.5C483.3,181.7,561.5,90.9,639.6,0c21.3,0,42.6,0,64,0
		c-0.4,0.6-0.8,1.2-1.3,1.8c-75.3,87.6-150.7,175.1-226,262.7c-14.5,16.8-29,33.7-43.5,50.6c1.3,2.1,2.3,3.7,3.4,5.3
		c83.1,120.9,166.2,241.8,249.2,362.7c14,20.3,27.6,40.8,41.4,61.3c-72.2,0-144.4,0-216.6,0c-0.8-1.4-1.6-3-2.6-4.3
		c-64-93.2-128-186.4-192-279.5c-1-1.5-2.4-2.9-3.8-4.6c-2.3,2.6-4.2,4.7-6.1,6.9c-51.6,60-103.3,120-154.9,180.1
		C121.9,676.6,92.9,710.5,64,744.3z M638.7,697.5c-1.5-2.4-2.5-4.2-3.7-5.9c-148.7-212.7-297.4-425.3-446-638.1
		c-2.6-3.7-5.3-5.4-10-5.4c-28.6,0.2-57.2,0.1-85.7,0.1c-1.8,0-3.6,0.3-6.2,0.6c2,3,3.4,5.2,4.9,7.3
		c97.5,139.5,195,278.9,292.5,418.4c50.8,72.6,101.5,145.2,152.4,217.8c1.8,2.6,5.4,5.5,8.2,5.5c30,0.4,60.1,0.2,90.1,0.2
		C636.2,698,637,697.8,638.7,697.5z"/>
</g>
</svg>
